<svg width="1440" height="688" viewBox="0 0 1440 688" fill="none" xmlns="http://www.w3.org/2000/svg">
  <g clip-path="url(#clip0_162_598)">
    <path d="M297.417 687.012C297.417 515.947 365.396 351.889 486.4 230.927C607.404 109.966 771.52 42.0107 942.646 42.0107" stroke="#FFFAF5" stroke-opacity="0.1" stroke-width="1.1306"/>
    <path d="M1341.43 440.656C1341.43 334.929 1299.42 233.531 1224.63 158.771C1149.84 84.0099 1048.41 42.0098 942.647 42.0098" stroke="#FFFAF5" stroke-opacity="0.1" stroke-width="1.1306"/>
    <path d="M1094.99 687.011C1160.35 687.011 1223.04 661.056 1269.25 614.855C1315.47 568.655 1341.43 505.994 1341.43 440.656" stroke="#FFFAF5" stroke-opacity="0.1" stroke-width="1.1306"/>
    <path d="M942.646 534.719C942.646 575.109 958.696 613.845 987.266 642.406C1015.84 670.966 1054.59 687.011 1094.99 687.011" stroke="#FFFAF5" stroke-opacity="0.1" stroke-width="1.1306"/>
    <path d="M942.646 534.719C942.646 509.773 952.559 485.848 970.205 468.207C987.852 450.567 1011.79 440.657 1036.74 440.657" stroke="#FFFAF5" stroke-opacity="0.1" stroke-width="1.1306"/>
    <path d="M1094.99 498.886C1094.99 491.239 1093.48 483.667 1090.56 476.603C1087.63 469.538 1083.34 463.119 1077.93 457.712C1072.52 452.305 1066.1 448.016 1059.03 445.09C1051.96 442.163 1044.39 440.657 1036.74 440.657" stroke="#FFFAF5" stroke-opacity="0.1" stroke-width="1.1306"/>
    <path d="M1094.99 498.885C1094.99 503.591 1094.06 508.25 1092.26 512.598C1090.46 516.945 1087.82 520.895 1084.49 524.223C1081.16 527.55 1077.21 530.189 1072.86 531.99C1068.51 533.791 1063.85 534.718 1059.14 534.718" stroke="#FFFAF5" stroke-opacity="0.1" stroke-width="1.1306"/>
    <path d="M1036.74 512.323C1036.74 515.264 1037.32 518.177 1038.45 520.894C1039.57 523.611 1041.22 526.08 1043.3 528.159C1045.38 530.239 1047.85 531.889 1050.57 533.014C1053.29 534.139 1056.2 534.719 1059.14 534.719" stroke="#FFFAF5" stroke-opacity="0.1" stroke-width="1.1306"/>
    <path d="M1036.74 512.324C1036.74 508.76 1038.16 505.342 1040.68 502.822C1043.2 500.302 1046.62 498.887 1050.18 498.887" stroke="#FFFAF5" stroke-opacity="0.1" stroke-width="1.1306"/>
    <path d="M1050.18 512.323V498.886" stroke="#FFFAF5" stroke-opacity="0.1" stroke-width="1.1306"/>
    <path d="M1059.15 512.323H1036.74" stroke="#FFFAF5" stroke-opacity="0.1" stroke-width="1.1306"/>
    <path d="M1050.18 507.845H1059.14" stroke="#FFFAF5" stroke-opacity="0.1" stroke-width="1.1306"/>
    <path d="M1054.66 507.845V512.324" stroke="#FFFAF5" stroke-opacity="0.1" stroke-width="1.1306"/>
    <path d="M1059.15 498.885V534.718" stroke="#FFFAF5" stroke-opacity="0.1" stroke-width="1.1306"/>
    <path d="M1036.74 498.885H1094.99" stroke="#FFFAF5" stroke-opacity="0.1" stroke-width="1.1306"/>
    <path d="M1036.74 534.72V440.657" stroke="#FFFAF5" stroke-opacity="0.1" stroke-width="1.1306"/>
    <path d="M1094.99 534.72H942.646" stroke="#FFFAF5" stroke-opacity="0.1" stroke-width="1.1306"/>
    <path d="M1094.99 440.657V687.012" stroke="#FFFAF5" stroke-opacity="0.1" stroke-width="1.1306"/>
    <path d="M942.646 440.431H1341.66" stroke="#FFFAF5" stroke-opacity="0.1" stroke-width="1.1306"/>
    <path d="M942.646 687.012V42.0098" stroke="#FFFAF5" stroke-opacity="0.1" stroke-width="1.1306"/>
    <path d="M1059.15 507.844C1059.15 505.468 1058.2 503.189 1056.52 501.509C1054.84 499.83 1052.56 498.886 1050.18 498.886" stroke="#FFFAF5" stroke-opacity="0.1" stroke-width="1.1306"/>
    <path d="M1059.15 507.845C1059.15 508.433 1059.03 509.015 1058.8 509.559C1058.58 510.102 1058.25 510.596 1057.83 511.011C1057.42 511.427 1056.92 511.757 1056.38 511.982C1055.84 512.207 1055.25 512.323 1054.66 512.323" stroke="#FFFAF5" stroke-opacity="0.1" stroke-width="1.1306"/>
    <path d="M1050.19 507.837C1050.19 508.425 1050.31 509.007 1050.53 509.551C1050.76 510.094 1051.09 510.588 1051.5 511.004C1051.92 511.42 1052.41 511.749 1052.96 511.975C1053.5 512.2 1054.08 512.315 1054.67 512.315" stroke="#FFFAF5" stroke-opacity="0.1" stroke-width="1.1306"/>
  </g>
  <defs>
    <clipPath id="clip0_162_598">
      <rect width="1440" height="688" fill="white"/>
    </clipPath>
  </defs>
</svg>
