<svg width="32" height="32" viewBox="0 0 32 32" fill="none" xmlns="http://www.w3.org/2000/svg">
  <g clip-path="url(#clip0_140_291)">
    <path fill-rule="evenodd" clip-rule="evenodd" d="M16 32C24.8366 32 32 24.8366 32 16C32 7.16344 24.8366 0 16 0C7.16344 0 0 7.16344 0 16C0 24.8366 7.16344 32 16 32ZM11.9848 9.60059C12.538 9.60059 13.049 9.64275 13.518 9.76915C13.9869 9.85347 14.3715 10.0274 14.714 10.2381C15.0565 10.4488 15.3093 10.7491 15.4832 11.1338C15.6518 11.5184 15.7413 11.9873 15.7413 12.4984C15.7413 13.0938 15.6149 13.6048 15.3146 13.9895C15.0565 14.374 14.6349 14.7165 14.1186 14.9695C14.8457 15.1802 15.3989 15.5648 15.7361 16.0759C16.0733 16.5869 16.2893 17.2244 16.2893 17.9515C16.2893 18.5469 16.1629 19.0579 15.9469 19.4847C15.7361 19.9115 15.3937 20.2961 15.009 20.549C14.6244 20.8072 14.1555 21.0179 13.6444 21.1443C13.1333 21.2708 12.6223 21.3551 12.1112 21.3551L6.3999 21.3657V9.60059H11.9848ZM11.6423 14.374C12.1112 14.374 12.4958 14.2476 12.7909 14.0316C13.0859 13.8155 13.2177 13.4362 13.2177 12.9673C13.2177 12.7091 13.1755 12.4563 13.0912 12.2876C13.0069 12.1191 12.8805 11.9873 12.7065 11.8609C12.538 11.7766 12.3641 11.6923 12.1533 11.6501C11.9426 11.6079 11.7266 11.6079 11.4737 11.6079H9.00262V14.3793C9.00262 14.374 11.6423 14.374 11.6423 14.374ZM11.7688 19.4057C12.0269 19.4057 12.2798 19.3635 12.4958 19.3214C12.7065 19.2792 12.9226 19.195 13.0912 19.0632C13.2598 18.9315 13.3915 18.8051 13.518 18.5943C13.6023 18.3835 13.6865 18.1254 13.6865 17.8251C13.6865 17.2297 13.518 16.803 13.1755 16.5027C12.833 16.2444 12.3641 16.118 11.8109 16.118H9.00262V19.4004H11.7688V19.4057ZM21.5315 19.8739C20.8518 19.8739 20.3408 19.7052 19.9983 19.3627C19.6558 19.0203 19.4029 18.3828 19.4029 17.6873H25.5832C25.6253 17.0076 25.5832 16.407 25.4989 15.8116C25.325 15.2163 25.0721 14.6631 24.7297 14.1941C24.3872 13.6831 23.9604 13.3459 23.4072 13.0455C22.854 12.7452 22.2165 12.6188 21.4893 12.6188C20.8045 12.6188 20.2513 12.7505 19.698 12.9612C19.1869 13.172 18.7181 13.5145 18.3334 13.8991C17.9488 14.3259 17.6537 14.7947 17.4377 15.348C17.2217 15.9012 17.1374 16.5019 17.1374 17.1394C17.1374 17.8243 17.2269 18.4197 17.4377 18.9729C17.6116 19.5261 17.9066 19.995 18.2913 20.3796C18.6759 20.8064 19.1026 21.1067 19.6558 21.3175C20.2091 21.5335 20.8097 21.6599 21.4893 21.6599C22.4693 21.6599 23.2808 21.4071 23.9604 20.9803C24.6401 20.5114 25.1512 19.7843 25.4936 18.7621H23.4072C23.3229 19.0203 23.1121 19.2732 22.7697 19.5314C22.4272 19.7474 22.0005 19.8739 21.5315 19.8739ZM21.3629 14.4155C21.9161 14.4155 22.3851 14.584 22.6853 14.8843C22.9805 15.1847 23.1965 15.6115 23.2808 16.2437H19.4451C19.4451 16.1013 19.4752 15.9553 19.5099 15.7864C19.5163 15.7553 19.5229 15.7233 19.5294 15.6905C19.5716 15.4797 19.6611 15.2637 19.8297 15.0951C19.8359 15.0889 19.8421 15.0827 19.8482 15.0765C20.0108 14.9138 20.1764 14.748 20.4251 14.6262C20.6833 14.4997 20.9783 14.4155 21.3629 14.4155ZM23.7075 10.4112H18.9341V11.5598H23.7075V10.4112Z" fill="currentColor"/>
  </g>
  <defs>
    <clipPath id="clip0_140_291">
      <rect width="32" height="32" fill="white"/>
    </clipPath>
  </defs>
</svg>
