<svg width="32" height="32" viewBox="0 0 32 32" fill="none" xmlns="http://www.w3.org/2000/svg">
  <g clip-path="url(#clip0_140_94)">
    <path fill-rule="evenodd" clip-rule="evenodd" d="M0 16C0 7.16344 7.16344 0 16 0C24.8366 0 32 7.16344 32 16C32 24.8366 24.8366 32 16 32C7.16344 32 0 24.8366 0 16ZM16.9999 15.9748L16.9999 15.9748L17.0688 15.9553C16.8262 15.3982 16.5566 14.8322 16.2691 14.2842C11.3805 15.743 6.68489 15.6912 6.22145 15.686L6.18867 15.6857C6.18867 15.7352 6.18643 15.7868 6.18418 15.8385C6.18193 15.8901 6.17969 15.9418 6.17969 15.9912C6.17969 18.5158 7.13203 20.8158 8.69531 22.5588V22.5498C8.69531 22.5498 11.3816 17.7881 16.6824 16.0721C16.7855 16.0353 16.8946 16.0045 16.9999 15.9748ZM11.8043 7.11426C11.9391 7.29395 13.7539 9.75566 15.452 12.7744C10.7441 14.0322 6.64727 13.9783 6.38672 13.9693C7.02461 10.9326 9.06406 8.40801 11.8043 7.11426ZM22.4863 8.63242C20.7523 7.10508 18.4883 6.17969 15.9996 6.17969C15.2 6.17969 14.4273 6.27851 13.6816 6.4582C13.6906 6.47049 13.7061 6.49145 13.7278 6.52071L13.7278 6.52073C14.0549 6.96221 15.7806 9.29175 17.3563 12.1902C20.9595 10.8347 22.3833 8.78097 22.4813 8.63966L22.4863 8.63242ZM9.96289 23.7443C10.0258 23.6096 11.9395 19.6025 17.6715 17.608C17.6895 17.599 17.7164 17.59 17.7434 17.5811C19.118 21.1748 19.693 24.1756 19.8367 25.0381C18.6598 25.5412 17.357 25.8197 16.0004 25.8197C13.7273 25.8197 11.634 25.0471 9.96289 23.7443ZM18.1113 13.6459C18.3359 14.1131 18.5605 14.5893 18.7672 15.0744L18.7673 15.0747L18.7673 15.0747C18.8392 15.2453 18.911 15.4159 18.9828 15.5775C22.3609 15.1553 25.6852 15.865 25.8199 15.901C25.793 13.574 24.9664 11.4357 23.5828 9.76465C23.5648 9.7916 21.9926 12.0646 18.1113 13.6459ZM21.4898 24.1489C21.391 23.5559 20.8609 20.6719 19.5762 17.1321C22.7477 16.62 25.4969 17.4915 25.7035 17.5633C25.2633 20.3036 23.691 22.6575 21.4898 24.1489Z" fill="currentColor"/>
  </g>
  <defs>
    <clipPath id="clip0_140_94">
      <rect width="32" height="32" fill="white"/>
    </clipPath>
  </defs>
</svg>
