<svg width="32" height="32" viewBox="0 0 32 32" fill="none" xmlns="http://www.w3.org/2000/svg">
  <g clip-path="url(#clip0_140_281)">
    <path fill-rule="evenodd" clip-rule="evenodd" d="M16 32C24.8366 32 32 24.8366 32 16C32 7.16344 24.8366 0 16 0C7.16344 0 0 7.16344 0 16C0 24.8366 7.16344 32 16 32ZM8.53337 9.28027H23.4667C24.288 9.28027 24.96 9.95227 24.96 10.7736V21.2269C24.96 22.0483 24.288 22.7203 23.4667 22.7203H8.53337C7.71204 22.7203 7.04004 22.0483 7.04004 21.2269V10.7736C7.04004 9.95227 7.71204 9.28027 8.53337 9.28027ZM16.5227 17.0456L22.5707 12.2669C22.7947 12.1176 22.8694 11.7443 22.72 11.5203C22.5707 11.2963 22.1974 11.2216 21.8987 11.3709L16 15.2536L10.176 11.3709C9.87737 11.2216 9.57871 11.2963 9.35471 11.5203C9.13071 11.8189 9.20537 12.1923 9.42937 12.3416L15.4027 17.0456C15.776 17.2696 16.224 17.2696 16.5227 17.0456Z" fill="currentColor"/>
  </g>
  <defs>
    <clipPath id="clip0_140_281">
      <rect width="32" height="32" fill="white"/>
    </clipPath>
  </defs>
</svg>
