<svg width="100" height="100" viewBox="0 0 100 100" fill="none" xmlns="http://www.w3.org/2000/svg">
  <g opacity="0.6">
    <path d="M38.5578 85.4155C45.0793 85.4155 50.3721 80.1227 50.3721 73.6012V61.7869H38.5578C32.0363 61.7869 26.7435 67.0797 26.7435 73.6012C26.7435 80.1227 32.0363 85.4155 38.5578 85.4155Z" fill="#0ACF83"/>
    <path d="M26.7435 49.9725C26.7435 43.451 32.0363 38.1582 38.5578 38.1582H50.3721V61.7868H38.5578C32.0363 61.7868 26.7435 56.494 26.7435 49.9725Z" fill="#A259FF"/>
    <path d="M26.7428 26.3446C26.7428 19.8231 32.0356 14.5303 38.5571 14.5303H50.3714V38.1589H38.5571C32.0356 38.1589 26.7428 32.8661 26.7428 26.3446Z" fill="#F24E1E"/>
    <path d="M50.3714 14.53H62.1857C68.7072 14.53 74 19.8228 74 26.3443C74 32.8658 68.7072 38.1586 62.1857 38.1586H50.3714V14.53Z" fill="#FF7262"/>
    <path d="M74 49.9725C74 56.494 68.7072 61.7868 62.1857 61.7868C55.6642 61.7868 50.3714 56.494 50.3714 49.9725C50.3714 43.451 55.6642 38.1582 62.1857 38.1582C68.7072 38.1582 74 43.451 74 49.9725Z" fill="#1ABCFE"/>
  </g>
</svg>
