<svg width="100" height="100" viewBox="0 0 100 100" fill="none" xmlns="http://www.w3.org/2000/svg">
  <g opacity="0.6">
    <g clip-path="url(#clip0_281_928)">
      <path d="M48.3741 62.2161H30.1522L26.4294 73.7272C26.3314 74.1681 25.9396 74.462 25.4987 74.413H16.2898C15.751 74.413 15.604 74.1191 15.751 73.5313L31.5237 28.1235C31.6707 27.6337 31.8176 27.0948 32.0135 26.507C32.2095 25.4784 32.3074 24.4007 32.3074 23.3231C32.2585 23.0782 32.4544 22.8333 32.6993 22.7843H45.3861C45.7779 22.7843 45.9739 22.9312 46.0229 23.1761L63.9019 73.6293C64.0488 74.1681 63.9019 74.413 63.412 74.413H53.1745C52.8316 74.462 52.4887 74.2171 52.3907 73.8742L48.3741 62.2161ZM32.9932 52.2724H45.4351C45.1412 51.2438 44.7493 50.0192 44.3084 48.7456C43.8676 47.423 43.4267 46.0025 42.9859 44.533C42.496 43.0145 42.0552 41.545 41.5654 40.0265C41.0755 38.508 40.6347 37.0875 40.2428 35.667C39.8509 34.2954 39.508 33.0219 39.1652 31.8462H39.0672C38.6263 33.9525 38.0875 36.0588 37.4017 38.1651C36.667 40.5163 35.9322 42.9655 35.1485 45.4147C34.4627 47.9129 33.728 50.2151 32.9932 52.2724ZM74.8252 31.3564C73.2088 31.4054 71.6413 30.7686 70.4657 29.642C69.3391 28.4174 68.7513 26.8009 68.8002 25.1355C68.7513 23.47 69.3881 21.9026 70.5637 20.7759C71.7393 19.6493 73.3067 19.0615 74.9232 19.0615C76.8336 19.0615 78.3031 19.6493 79.3807 20.7759C80.4583 21.9516 81.0462 23.519 80.9972 25.1355C81.0462 26.8009 80.4583 28.4174 79.2827 29.642C78.1561 30.8176 76.4907 31.4544 74.8252 31.3564ZM69.3391 73.8742V36.1568C69.3391 35.667 69.535 35.471 69.9759 35.471H79.6746C80.1155 35.471 80.3114 35.716 80.3114 36.1568V73.8742C80.3114 74.413 80.1155 74.6579 79.6746 74.6579H70.0738C69.584 74.6579 69.3391 74.364 69.3391 73.8742Z" fill="#FF9A00"/>
    </g>
  </g>
  <defs>
    <clipPath id="clip0_281_928">
      <rect x="4.74359" y="6" width="90.2564" height="88" rx="44" fill="white"/>
    </clipPath>
  </defs>
</svg>
