<svg width="100" height="100" viewBox="0 0 100 100" fill="none" xmlns="http://www.w3.org/2000/svg">
  <g opacity="0.6">
    <g clip-path="url(#clip0_281_930)">
      <path d="M14.9233 74.9905V21.494C14.9233 21.1301 15.0793 20.9222 15.4432 20.9222C16.327 20.9222 17.1589 20.9222 18.3546 20.8702C19.6023 20.8182 20.9021 20.8182 22.3058 20.7662C23.7094 20.7142 25.2171 20.7142 26.8288 20.6622C28.4404 20.6102 30.0001 20.6102 31.5598 20.6102C35.8228 20.6102 39.3581 21.1301 42.2695 22.2219C44.8689 23.1057 47.2604 24.5614 49.236 26.485C50.8996 28.1486 52.1993 30.1762 53.0311 32.4117C53.811 34.5952 54.2269 36.8307 54.2269 39.1702C54.2269 43.6413 53.1871 47.3325 51.1076 50.2439C49.028 53.1552 46.1166 55.3388 42.7374 56.5865C39.2021 57.8862 35.303 58.3541 31.0399 58.3541C29.7921 58.3541 28.9603 58.3541 28.4404 58.3021C27.9205 58.2501 27.1927 58.2501 26.2049 58.2501V74.9385C26.2569 75.3025 25.997 75.6144 25.633 75.6664C25.581 75.6664 25.5291 75.6664 25.4251 75.6664H15.5472C15.1313 75.6664 14.9233 75.4584 14.9233 74.9905ZM26.2569 30.956V48.4242C26.9847 48.4762 27.6606 48.5282 28.2845 48.5282H31.0399C33.0674 48.5282 35.095 48.2163 37.0186 47.5924C38.6822 47.1245 40.1379 46.1367 41.2817 44.837C42.3734 43.5373 42.8933 41.7697 42.8933 39.4822C42.9453 37.8705 42.5294 36.2589 41.6976 34.8552C40.8138 33.5035 39.566 32.4637 38.0584 31.8918C36.1348 31.112 34.0552 30.8 31.9237 30.852C30.572 30.852 29.3762 30.852 28.3884 30.904C27.3487 30.852 26.6208 30.904 26.2569 30.956Z" fill="#31A8FF"/>
      <path d="M86.6684 45.253C85.1088 44.4212 83.4451 43.8493 81.6775 43.4854C79.7539 43.0695 77.8303 42.8095 75.8547 42.8095C74.815 42.7575 73.7232 42.9135 72.7354 43.1735C72.0596 43.3294 71.4877 43.6933 71.1238 44.2132C70.8638 44.6291 70.7078 45.149 70.7078 45.6169C70.7078 46.0848 70.9158 46.5527 71.2277 46.9686C71.6956 47.5405 72.3195 48.0084 72.9954 48.3723C74.1911 48.9962 75.4388 49.5681 76.6866 50.088C79.494 51.0238 82.1974 52.3235 84.6928 53.8832C86.4085 54.9749 87.8122 56.4306 88.8 58.1982C89.6318 59.8619 90.0477 61.6815 89.9957 63.5531C90.0477 65.9966 89.3198 68.44 87.9681 70.4676C86.5124 72.5471 84.4849 74.1588 82.1454 75.0946C79.5979 76.1864 76.4786 76.7582 72.7354 76.7582C70.3439 76.7582 68.0044 76.5503 65.6649 76.0824C63.8453 75.7704 62.0257 75.1986 60.3621 74.4187C59.9981 74.2108 59.7382 73.8469 59.7902 73.431V64.3849C59.7902 64.2289 59.8422 64.021 59.9981 63.917C60.1541 63.813 60.3101 63.865 60.4661 63.969C62.4936 65.1647 64.6252 65.9966 66.9127 66.5164C68.8882 67.0363 70.9678 67.2963 73.0473 67.2963C75.0229 67.2963 76.4266 67.0363 77.3624 66.5684C78.1942 66.2045 78.7661 65.3207 78.7661 64.3849C78.7661 63.6571 78.3502 62.9812 77.5184 62.3053C76.6866 61.6295 74.9709 60.8497 72.4235 59.8619C69.772 58.9261 67.3286 57.6783 65.0411 56.1187C63.4294 54.9749 62.0777 53.4672 61.0899 51.6996C60.2581 50.036 59.8422 48.2164 59.8942 46.3968C59.8942 44.1612 60.518 42.0297 61.6618 40.1061C62.9615 38.0266 64.8851 36.3629 67.1206 35.3231C69.5641 34.0754 72.6314 33.5035 76.3226 33.5035C78.4542 33.5035 80.6377 33.6595 82.7693 33.9714C84.3289 34.1794 85.8366 34.5953 87.2403 35.1672C87.4483 35.2192 87.6562 35.4271 87.7602 35.6351C87.8122 35.843 87.8642 36.051 87.8642 36.2589V44.7331C87.8642 44.9411 87.7602 45.149 87.6042 45.253C87.1363 45.357 86.8764 45.357 86.6684 45.253Z" fill="#31A8FF"/>
    </g>
  </g>
  <defs>
    <clipPath id="clip0_281_930">
      <rect x="5" y="6" width="90.2564" height="88" rx="44" fill="white"/>
    </clipPath>
  </defs>
</svg>
