<svg width="1180" height="150" viewBox="0 0 1180 150" fill="none" xmlns="http://www.w3.org/2000/svg">
  <path d="M30.9841 137H8.06877V24.5214H114.415V137H91.4998V27.1034H30.9841V137ZM128.098 81.1641C128.098 40.4975 162.148 22.1008 195.553 22.1008C228.958 22.1008 263.008 40.4975 263.008 81.1641C263.008 121.992 228.958 139.582 195.553 139.582C162.31 139.582 128.098 121.992 128.098 81.1641ZM195.553 24.6828C171.347 24.6828 151.82 38.8838 151.82 80.8414C151.82 122.96 171.347 137.161 195.553 137.161C219.759 137.161 239.286 122.96 239.286 80.8414C239.286 38.8838 219.759 24.6828 195.553 24.6828ZM276.765 24.5214H299.68V61.9605C303.231 40.9817 310.492 22.1008 335.667 22.1008C359.551 22.1008 380.045 30.9764 380.045 59.0557C380.045 92.299 353.257 98.1085 326.791 98.1085H299.68V137H276.765V24.5214ZM305.651 48.4049C298.873 73.2567 299.68 95.6879 299.68 95.6879H323.08C338.572 95.6879 356.646 93.1059 356.646 59.0557C356.646 40.0134 355.839 24.36 336.312 24.36C321.143 24.36 309.686 33.7198 305.651 48.4049ZM428.793 27.1034H382.478V24.5214H498.185V27.1034H451.87V137H428.955L428.793 27.1034ZM495.763 81.3255C495.763 45.1774 526.424 34.3653 559.667 34.3653H562.249V24.5214H585.971V34.3653H588.553C621.635 34.3653 652.297 45.1774 652.297 81.3255C652.297 117.474 621.474 126.995 588.231 126.995H585.649V137H562.572V126.995H559.829C526.585 126.995 495.763 117.474 495.763 81.3255ZM559.022 37.1087C534.816 37.1087 519.162 50.9869 519.162 80.5186C519.162 110.05 534.816 124.251 559.022 124.251H562.411V37.1087H559.022ZM585.81 37.1087V124.251H589.199C613.244 124.251 629.059 110.05 629.059 80.5186C629.059 50.9869 613.244 37.1087 589.199 37.1087H585.81ZM663.599 81.1641C663.599 40.4975 697.65 22.1008 731.054 22.1008C764.459 22.1008 798.509 40.4975 798.509 81.1641C798.509 121.992 764.459 139.582 731.054 139.582C697.811 139.582 663.599 121.992 663.599 81.1641ZM731.054 24.6828C706.848 24.6828 687.321 38.8838 687.321 80.8414C687.321 122.96 706.848 137.161 731.054 137.161C755.261 137.161 774.787 122.96 774.787 80.8414C774.787 38.8838 755.261 24.6828 731.054 24.6828ZM799.426 137L838.156 24.5214H862.523L906.095 137H882.05L839.77 28.3944L802.33 137H799.426ZM918.957 137V24.5214H941.872V134.257C955.912 134.257 999.16 128.931 1002.39 66.3176V24.5214H1025.3V137H1002.39V86.4895C995.449 116.667 973.663 137 941.872 137H918.957ZM1038.99 81.1641C1038.99 40.4975 1073.04 22.1008 1106.44 22.1008C1139.85 22.1008 1173.9 40.4975 1173.9 81.1641C1173.9 121.992 1139.85 139.582 1106.44 139.582C1073.2 139.582 1038.99 121.992 1038.99 81.1641ZM1106.44 24.6828C1082.23 24.6828 1062.71 38.8838 1062.71 80.8414C1062.71 122.96 1082.23 137.161 1106.44 137.161C1130.65 137.161 1150.17 122.96 1150.17 80.8414C1150.17 38.8838 1130.65 24.6828 1106.44 24.6828Z" fill="#724F2C"/>
  <rect y="110" width="1180" height="40" fill="#FFFAF5"/>
</svg>
